<?xml version="1.0" encoding="UTF-8" standalone="no"?>
<!-- Uploaded to: SVG Repo, www.svgrepo.com, Generator: SVG Repo Mixer Tools -->

<svg
   width="800px"
   height="800px"
   viewBox="0 0 24 24"
   fill="none"
   version="1.1"
   id="svg6"
   sodipodi:docname="ava.svg"
   inkscape:version="1.2.1 (9c6d41e4, 2022-07-14)"
   xmlns:inkscape="http://www.inkscape.org/namespaces/inkscape"
   xmlns:sodipodi="http://sodipodi.sourceforge.net/DTD/sodipodi-0.dtd"
   xmlns="http://www.w3.org/2000/svg"
   xmlns:svg="http://www.w3.org/2000/svg">
  <defs
     id="defs10" />
  <sodipodi:namedview
     id="namedview8"
     pagecolor="#ffffff"
     bordercolor="#000000"
     borderopacity="0.25"
     inkscape:showpageshadow="2"
     inkscape:pageopacity="0.0"
     inkscape:pagecheckerboard="0"
     inkscape:deskcolor="#d1d1d1"
     showgrid="false"
     inkscape:zoom="0.295"
     inkscape:cx="400"
     inkscape:cy="400"
     inkscape:window-width="1680"
     inkscape:window-height="1050"
     inkscape:window-x="0"
     inkscape:window-y="0"
     inkscape:window-maximized="0"
     inkscape:current-layer="svg6" />
  <path
     d="m 24.033898,12.050848 c 0,-6.5466275 -5.38039,-11.88135647 -11.983051,-11.88135647 -6.6026605,0 -11.98305039,5.33472897 -11.98305039,11.88135647 0,3.445593 1.49788129,6.546627 3.87052549,8.720915 0,0.01188 0,0.01188 -0.011983,0.02376 0.1198305,0.118814 0.2636271,0.213863 0.3834576,0.320796 0.071899,0.05941 0.1318135,0.118813 0.2037118,0.166339 0.215695,0.17822 0.455356,0.34456 0.6830339,0.510898 0.083882,0.05941 0.1557798,0.106927 0.2396611,0.16634 0.227678,0.154457 0.4673389,0.297033 0.7189831,0.427728 0.083882,0.04753 0.1797457,0.106938 0.2636271,0.154457 0.2396609,0.130696 0.4913051,0.24951 0.7549321,0.356442 0.095865,0.04752 0.1917288,0.09505 0.2875933,0.130695 0.2636271,0.106927 0.5272542,0.201982 0.7908814,0.285152 0.095865,0.03565 0.1917288,0.07129 0.2875932,0.09505 0.2875934,0.08317 0.5751868,0.154457 0.8627792,0.225746 0.083883,0.02376 0.1677635,0.04752 0.2636273,0.05941 0.3355258,0.07129 0.6710508,0.118814 1.0185598,0.154458 0.04793,0 0.09587,0.01189 0.143796,0.02376 0.407424,0.03565 0.814848,0.05941 1.222271,0.05941 0.407424,0 0.814848,-0.02376 1.210289,-0.05941 0.04793,0 0.09587,-0.01189 0.143796,-0.02376 0.347509,-0.03565 0.683035,-0.08317 1.018559,-0.154458 0.08388,-0.01188 0.167763,-0.04752 0.263628,-0.05941 0.287593,-0.07129 0.587169,-0.130695 0.862779,-0.225746 0.09587,-0.03565 0.191729,-0.07129 0.287593,-0.09505 0.263628,-0.09505 0.539238,-0.17822 0.790882,-0.285152 0.09587,-0.03565 0.191729,-0.08317 0.287594,-0.130695 0.251643,-0.106927 0.503287,-0.225746 0.754931,-0.356442 0.09587,-0.04752 0.179747,-0.106927 0.263627,-0.154457 0.239661,-0.142576 0.479322,-0.273271 0.718983,-0.427728 0.08388,-0.04753 0.15578,-0.106927 0.239661,-0.16634 0.239661,-0.166338 0.467339,-0.332678 0.683034,-0.510898 0.0719,-0.05941 0.131814,-0.118813 0.203712,-0.166339 0.131814,-0.106927 0.263627,-0.213865 0.383458,-0.320796 0,-0.01189 0,-0.01189 -0.01199,-0.02376 2.384627,-2.174288 3.882508,-5.275322 3.882508,-8.720915 z m -6.063423,5.905033 c -3.247407,-2.162406 -8.5678822,-2.162406 -11.8392546,0 -0.5272543,0.34456 -0.9586442,0.748526 -1.3181356,1.188136 -1.8214238,-1.829728 -2.9478305,-4.336695 -2.9478305,-7.093169 0,-5.5723564 4.5655423,-10.099153 10.1855927,-10.099153 5.620051,0 10.185594,4.5267966 10.185594,10.099153 0,2.756474 -1.126407,5.263441 -2.947831,7.093169 -0.347508,-0.43961 -0.790881,-0.843576 -1.318135,-1.188136 z"
     fill="#9CA3AF"
     id="path2"
     style="stroke-width:1.19321" />
  <path
     d="M12 6.92969C9.93 6.92969 8.25 8.60969 8.25 10.6797C8.25 12.7097 9.84 14.3597 11.95 14.4197C11.98 14.4197 12.02 14.4197 12.04 14.4197C12.06 14.4197 12.09 14.4197 12.11 14.4197C12.12 14.4197 12.13 14.4197 12.13 14.4197C14.15 14.3497 15.74 12.7097 15.75 10.6797C15.75 8.60969 14.07 6.92969 12 6.92969Z"
     fill="#9CA3AF"
     id="path4" />
</svg>
